<svg width="47" height="54" viewBox="0 0 47 54" fill="none" xmlns="http://www.w3.org/2000/svg">
<path d="M43.3865 7.20427C42.2821 5.46232 40.7724 4.06732 39.0102 3.16051C37.2481 2.25369 35.296 1.86724 33.3516 2.04029C28.7784 2.60249 27.5865 4.88859 23.5 5.3249C19.4135 4.88869 18.2216 2.60249 13.6484 2.04029C11.704 1.86728 9.7519 2.25374 7.98974 3.16055C6.22758 4.06736 4.71789 5.46234 3.61348 7.20427C0.99034 11.5441 1.56608 18.0263 5.33758 22.9862C6.16098 24.0346 6.64337 25.3471 6.7105 26.7216C6.93669 33.028 8.04404 50.7692 13.3577 51.9705C17.4565 52.8971 15.2893 31.6784 23.5 31.9529C31.7106 31.6782 29.5435 52.8969 33.6422 51.9705C38.9559 50.7692 40.0634 33.028 40.2895 26.7216C40.3565 25.3471 40.8389 24.0346 41.6624 22.9862C45.4339 18.0263 46.0097 11.5441 43.3865 7.20427Z" fill="white"/>
<path d="M42.7081 7.06024C41.565 4.13237 31.3254 -0.989831 33.0816 1.81069C35.8738 6.26313 36.9204 14.6206 36.0528 23.7221C35.3072 31.5441 31.0562 48.7294 31.0562 48.7294C30.7239 51.0671 31.9412 53.1359 32.726 52.993C34.8936 52.5983 39.9673 45.0195 39.7369 26.901C39.771 25.4963 40.2376 24.1509 41.0539 23.1037C42.6259 20.8843 43.616 18.1979 43.9089 15.3574C44.2017 12.517 43.7853 9.63949 42.7081 7.06024Z" fill="#D0CFCE"/>
<path d="M43.3865 7.20427C42.2821 5.46232 40.7724 4.06732 39.0102 3.16051C37.2481 2.25369 35.296 1.86724 33.3516 2.04029C28.7784 2.60249 27.5865 4.88859 23.5 5.3249C19.4135 4.88869 18.2216 2.60249 13.6484 2.04029C11.704 1.86728 9.7519 2.25374 7.98974 3.16055C6.22758 4.06736 4.71789 5.46234 3.61348 7.20427C0.99034 11.5441 1.56608 18.0263 5.33758 22.9862C6.16098 24.0346 6.64337 25.3471 6.7105 26.7216C6.93669 33.028 8.04404 50.7692 13.3577 51.9705C17.4565 52.8971 15.2893 31.6784 23.5 31.9529C31.7106 31.6782 29.5435 52.8969 33.6422 51.9705C38.9559 50.7692 40.0634 33.028 40.2895 26.7216C40.3565 25.3471 40.8389 24.0346 41.6624 22.9862C45.4339 18.0263 46.0097 11.5441 43.3865 7.20427V7.20427Z" stroke="#0F2650" stroke-width="4" stroke-miterlimit="10"/>
</svg>
